<mxfile host="app.diagrams.net" modified="2023-06-07T12:50:30.634Z" agent="Mozilla/5.0 (X11; Linux x86_64) AppleWebKit/537.36 (KHTML, like Gecko) Chrome/113.0.0.0 Safari/537.36" etag="poHPUJjv_Sw5nQtuLkeM" version="21.3.7" type="github">
  <diagram name="Pagina-1" id="zLtLsO0ySY47t27Yj4bS">
    <mxGraphModel dx="2048" dy="759" grid="1" gridSize="10" guides="1" tooltips="1" connect="1" arrows="1" fold="1" page="1" pageScale="1" pageWidth="827" pageHeight="1169" math="0" shadow="0">
      <root>
        <mxCell id="0" />
        <mxCell id="1" parent="0" />
        <mxCell id="9P4-RmKASeGlcGMQjBVW-55" value="" style="rounded=0;whiteSpace=wrap;html=1;fillColor=none;" parent="1" vertex="1">
          <mxGeometry x="560" y="299" width="259" height="400" as="geometry" />
        </mxCell>
        <mxCell id="9P4-RmKASeGlcGMQjBVW-54" value="" style="rounded=0;whiteSpace=wrap;html=1;fillColor=none;" parent="1" vertex="1">
          <mxGeometry x="272" y="299" width="259" height="400" as="geometry" />
        </mxCell>
        <mxCell id="9P4-RmKASeGlcGMQjBVW-53" value="" style="rounded=0;whiteSpace=wrap;html=1;fillColor=none;" parent="1" vertex="1">
          <mxGeometry x="-17" y="299" width="259" height="400" as="geometry" />
        </mxCell>
        <mxCell id="9P4-RmKASeGlcGMQjBVW-52" value="" style="rounded=0;whiteSpace=wrap;html=1;fillColor=none;" parent="1" vertex="1">
          <mxGeometry x="-304" y="299" width="259" height="400" as="geometry" />
        </mxCell>
        <mxCell id="WsTCxCBbNMFjAXj_Hqe6-10" style="edgeStyle=none;rounded=0;orthogonalLoop=1;jettySize=auto;html=1;exitX=0;exitY=1;exitDx=0;exitDy=0;entryX=0.897;entryY=0.083;entryDx=0;entryDy=0;endArrow=baseDash;endFill=0;entryPerimeter=0;" parent="1" source="WsTCxCBbNMFjAXj_Hqe6-1" target="WsTCxCBbNMFjAXj_Hqe6-3" edge="1">
          <mxGeometry relative="1" as="geometry" />
        </mxCell>
        <mxCell id="WsTCxCBbNMFjAXj_Hqe6-11" style="edgeStyle=none;rounded=0;orthogonalLoop=1;jettySize=auto;html=1;exitX=1;exitY=1;exitDx=0;exitDy=0;" parent="1" source="WsTCxCBbNMFjAXj_Hqe6-1" target="WsTCxCBbNMFjAXj_Hqe6-2" edge="1">
          <mxGeometry relative="1" as="geometry" />
        </mxCell>
        <mxCell id="WsTCxCBbNMFjAXj_Hqe6-1" value="a" style="ellipse;whiteSpace=wrap;html=1;aspect=fixed;" parent="1" vertex="1">
          <mxGeometry x="390" y="350" width="40" height="40" as="geometry" />
        </mxCell>
        <mxCell id="WsTCxCBbNMFjAXj_Hqe6-14" style="edgeStyle=none;rounded=0;orthogonalLoop=1;jettySize=auto;html=1;exitX=0.5;exitY=1;exitDx=0;exitDy=0;entryX=0.5;entryY=0;entryDx=0;entryDy=0;" parent="1" source="WsTCxCBbNMFjAXj_Hqe6-2" target="WsTCxCBbNMFjAXj_Hqe6-4" edge="1">
          <mxGeometry relative="1" as="geometry" />
        </mxCell>
        <mxCell id="WsTCxCBbNMFjAXj_Hqe6-15" style="edgeStyle=none;rounded=0;orthogonalLoop=1;jettySize=auto;html=1;exitX=0;exitY=1;exitDx=0;exitDy=0;entryX=0.945;entryY=0.26;entryDx=0;entryDy=0;entryPerimeter=0;" parent="1" source="WsTCxCBbNMFjAXj_Hqe6-2" target="WsTCxCBbNMFjAXj_Hqe6-7" edge="1">
          <mxGeometry relative="1" as="geometry" />
        </mxCell>
        <mxCell id="WsTCxCBbNMFjAXj_Hqe6-2" value="b" style="ellipse;whiteSpace=wrap;html=1;aspect=fixed;" parent="1" vertex="1">
          <mxGeometry x="460" y="430" width="40" height="40" as="geometry" />
        </mxCell>
        <mxCell id="WsTCxCBbNMFjAXj_Hqe6-13" style="edgeStyle=none;rounded=0;orthogonalLoop=1;jettySize=auto;html=1;exitX=0.5;exitY=1;exitDx=0;exitDy=0;entryX=0.5;entryY=0;entryDx=0;entryDy=0;" parent="1" source="WsTCxCBbNMFjAXj_Hqe6-3" target="WsTCxCBbNMFjAXj_Hqe6-7" edge="1">
          <mxGeometry relative="1" as="geometry" />
        </mxCell>
        <mxCell id="WsTCxCBbNMFjAXj_Hqe6-3" value="c" style="ellipse;whiteSpace=wrap;html=1;aspect=fixed;" parent="1" vertex="1">
          <mxGeometry x="310" y="430" width="40" height="40" as="geometry" />
        </mxCell>
        <mxCell id="WsTCxCBbNMFjAXj_Hqe6-4" value="e" style="ellipse;whiteSpace=wrap;html=1;aspect=fixed;" parent="1" vertex="1">
          <mxGeometry x="460" y="530" width="40" height="40" as="geometry" />
        </mxCell>
        <mxCell id="WsTCxCBbNMFjAXj_Hqe6-12" style="edgeStyle=none;rounded=0;orthogonalLoop=1;jettySize=auto;html=1;exitX=1;exitY=1;exitDx=0;exitDy=0;entryX=0.25;entryY=0;entryDx=0;entryDy=0;entryPerimeter=0;endArrow=baseDash;endFill=0;" parent="1" source="WsTCxCBbNMFjAXj_Hqe6-7" target="WsTCxCBbNMFjAXj_Hqe6-8" edge="1">
          <mxGeometry relative="1" as="geometry" />
        </mxCell>
        <mxCell id="WsTCxCBbNMFjAXj_Hqe6-7" value="d" style="ellipse;whiteSpace=wrap;html=1;aspect=fixed;" parent="1" vertex="1">
          <mxGeometry x="310" y="530" width="40" height="40" as="geometry" />
        </mxCell>
        <mxCell id="WsTCxCBbNMFjAXj_Hqe6-8" value="f" style="ellipse;whiteSpace=wrap;html=1;aspect=fixed;" parent="1" vertex="1">
          <mxGeometry x="380" y="620" width="40" height="40" as="geometry" />
        </mxCell>
        <mxCell id="9P4-RmKASeGlcGMQjBVW-7" style="edgeStyle=none;rounded=0;orthogonalLoop=1;jettySize=auto;html=1;exitX=0;exitY=1;exitDx=0;exitDy=0;entryX=0.897;entryY=0.083;entryDx=0;entryDy=0;endArrow=baseDash;endFill=0;entryPerimeter=0;" parent="1" source="9P4-RmKASeGlcGMQjBVW-9" target="9P4-RmKASeGlcGMQjBVW-14" edge="1">
          <mxGeometry relative="1" as="geometry" />
        </mxCell>
        <mxCell id="9P4-RmKASeGlcGMQjBVW-8" style="edgeStyle=none;rounded=0;orthogonalLoop=1;jettySize=auto;html=1;exitX=1;exitY=1;exitDx=0;exitDy=0;" parent="1" source="9P4-RmKASeGlcGMQjBVW-9" target="9P4-RmKASeGlcGMQjBVW-12" edge="1">
          <mxGeometry relative="1" as="geometry" />
        </mxCell>
        <mxCell id="9P4-RmKASeGlcGMQjBVW-9" value="a" style="ellipse;whiteSpace=wrap;html=1;aspect=fixed;" parent="1" vertex="1">
          <mxGeometry x="678" y="350" width="40" height="40" as="geometry" />
        </mxCell>
        <mxCell id="9P4-RmKASeGlcGMQjBVW-10" style="edgeStyle=none;rounded=0;orthogonalLoop=1;jettySize=auto;html=1;exitX=0.5;exitY=1;exitDx=0;exitDy=0;entryX=0.5;entryY=0;entryDx=0;entryDy=0;" parent="1" source="9P4-RmKASeGlcGMQjBVW-12" target="9P4-RmKASeGlcGMQjBVW-15" edge="1">
          <mxGeometry relative="1" as="geometry" />
        </mxCell>
        <mxCell id="9P4-RmKASeGlcGMQjBVW-11" style="edgeStyle=none;rounded=0;orthogonalLoop=1;jettySize=auto;html=1;exitX=0;exitY=1;exitDx=0;exitDy=0;entryX=0.945;entryY=0.26;entryDx=0;entryDy=0;entryPerimeter=0;" parent="1" source="9P4-RmKASeGlcGMQjBVW-12" target="9P4-RmKASeGlcGMQjBVW-17" edge="1">
          <mxGeometry relative="1" as="geometry" />
        </mxCell>
        <mxCell id="9P4-RmKASeGlcGMQjBVW-12" value="b" style="ellipse;whiteSpace=wrap;html=1;aspect=fixed;" parent="1" vertex="1">
          <mxGeometry x="748" y="430" width="40" height="40" as="geometry" />
        </mxCell>
        <mxCell id="9P4-RmKASeGlcGMQjBVW-13" style="edgeStyle=none;rounded=0;orthogonalLoop=1;jettySize=auto;html=1;exitX=0.5;exitY=1;exitDx=0;exitDy=0;entryX=0.5;entryY=0;entryDx=0;entryDy=0;" parent="1" source="9P4-RmKASeGlcGMQjBVW-14" target="9P4-RmKASeGlcGMQjBVW-17" edge="1">
          <mxGeometry relative="1" as="geometry" />
        </mxCell>
        <mxCell id="9P4-RmKASeGlcGMQjBVW-14" value="c" style="ellipse;whiteSpace=wrap;html=1;aspect=fixed;" parent="1" vertex="1">
          <mxGeometry x="598" y="430" width="40" height="40" as="geometry" />
        </mxCell>
        <mxCell id="QD_6PpsXOqeVRtljdFyT-5" style="edgeStyle=orthogonalEdgeStyle;curved=1;rounded=0;orthogonalLoop=1;jettySize=auto;html=1;exitX=0;exitY=0.5;exitDx=0;exitDy=0;entryX=0.5;entryY=0;entryDx=0;entryDy=0;dashed=1;" parent="1" source="QD_6PpsXOqeVRtljdFyT-11" target="9P4-RmKASeGlcGMQjBVW-34" edge="1">
          <mxGeometry relative="1" as="geometry">
            <Array as="points">
              <mxPoint x="-118" y="310" />
              <mxPoint x="-168" y="310" />
            </Array>
          </mxGeometry>
        </mxCell>
        <mxCell id="9P4-RmKASeGlcGMQjBVW-15" value="e" style="ellipse;whiteSpace=wrap;html=1;aspect=fixed;" parent="1" vertex="1">
          <mxGeometry x="748" y="530" width="40" height="40" as="geometry" />
        </mxCell>
        <mxCell id="9P4-RmKASeGlcGMQjBVW-16" style="edgeStyle=none;rounded=0;orthogonalLoop=1;jettySize=auto;html=1;exitX=1;exitY=1;exitDx=0;exitDy=0;entryX=0.25;entryY=0;entryDx=0;entryDy=0;entryPerimeter=0;endArrow=baseDash;endFill=0;" parent="1" source="9P4-RmKASeGlcGMQjBVW-17" target="9P4-RmKASeGlcGMQjBVW-18" edge="1">
          <mxGeometry relative="1" as="geometry" />
        </mxCell>
        <mxCell id="9P4-RmKASeGlcGMQjBVW-17" value="d" style="ellipse;whiteSpace=wrap;html=1;aspect=fixed;" parent="1" vertex="1">
          <mxGeometry x="598" y="530" width="40" height="40" as="geometry" />
        </mxCell>
        <mxCell id="QD_6PpsXOqeVRtljdFyT-6" style="edgeStyle=orthogonalEdgeStyle;curved=1;rounded=0;orthogonalLoop=1;jettySize=auto;html=1;exitX=0;exitY=0.5;exitDx=0;exitDy=0;entryX=1;entryY=0.5;entryDx=0;entryDy=0;dashed=1;" parent="1" source="QD_6PpsXOqeVRtljdFyT-17" target="WsTCxCBbNMFjAXj_Hqe6-1" edge="1">
          <mxGeometry relative="1" as="geometry" />
        </mxCell>
        <mxCell id="9P4-RmKASeGlcGMQjBVW-18" value="f" style="ellipse;whiteSpace=wrap;html=1;aspect=fixed;" parent="1" vertex="1">
          <mxGeometry x="668" y="620" width="40" height="40" as="geometry" />
        </mxCell>
        <mxCell id="9P4-RmKASeGlcGMQjBVW-19" style="edgeStyle=none;rounded=0;orthogonalLoop=1;jettySize=auto;html=1;exitX=0;exitY=1;exitDx=0;exitDy=0;entryX=0.897;entryY=0.083;entryDx=0;entryDy=0;endArrow=baseDash;endFill=0;entryPerimeter=0;" parent="1" source="9P4-RmKASeGlcGMQjBVW-21" target="9P4-RmKASeGlcGMQjBVW-26" edge="1">
          <mxGeometry relative="1" as="geometry" />
        </mxCell>
        <mxCell id="9P4-RmKASeGlcGMQjBVW-20" style="edgeStyle=none;rounded=0;orthogonalLoop=1;jettySize=auto;html=1;exitX=1;exitY=1;exitDx=0;exitDy=0;" parent="1" source="9P4-RmKASeGlcGMQjBVW-21" target="9P4-RmKASeGlcGMQjBVW-24" edge="1">
          <mxGeometry relative="1" as="geometry" />
        </mxCell>
        <mxCell id="9P4-RmKASeGlcGMQjBVW-21" value="a" style="ellipse;whiteSpace=wrap;html=1;aspect=fixed;" parent="1" vertex="1">
          <mxGeometry x="100" y="350" width="40" height="40" as="geometry" />
        </mxCell>
        <mxCell id="9P4-RmKASeGlcGMQjBVW-22" style="edgeStyle=none;rounded=0;orthogonalLoop=1;jettySize=auto;html=1;exitX=0.5;exitY=1;exitDx=0;exitDy=0;entryX=0.5;entryY=0;entryDx=0;entryDy=0;" parent="1" source="9P4-RmKASeGlcGMQjBVW-24" target="9P4-RmKASeGlcGMQjBVW-27" edge="1">
          <mxGeometry relative="1" as="geometry" />
        </mxCell>
        <mxCell id="9P4-RmKASeGlcGMQjBVW-23" style="edgeStyle=none;rounded=0;orthogonalLoop=1;jettySize=auto;html=1;exitX=0;exitY=1;exitDx=0;exitDy=0;entryX=0.945;entryY=0.26;entryDx=0;entryDy=0;entryPerimeter=0;" parent="1" source="9P4-RmKASeGlcGMQjBVW-24" target="9P4-RmKASeGlcGMQjBVW-29" edge="1">
          <mxGeometry relative="1" as="geometry" />
        </mxCell>
        <mxCell id="9P4-RmKASeGlcGMQjBVW-24" value="b" style="ellipse;whiteSpace=wrap;html=1;aspect=fixed;" parent="1" vertex="1">
          <mxGeometry x="170" y="430" width="40" height="40" as="geometry" />
        </mxCell>
        <mxCell id="9P4-RmKASeGlcGMQjBVW-25" style="edgeStyle=none;rounded=0;orthogonalLoop=1;jettySize=auto;html=1;exitX=0.5;exitY=1;exitDx=0;exitDy=0;entryX=0.5;entryY=0;entryDx=0;entryDy=0;" parent="1" source="9P4-RmKASeGlcGMQjBVW-26" target="9P4-RmKASeGlcGMQjBVW-29" edge="1">
          <mxGeometry relative="1" as="geometry" />
        </mxCell>
        <mxCell id="9P4-RmKASeGlcGMQjBVW-26" value="c" style="ellipse;whiteSpace=wrap;html=1;aspect=fixed;" parent="1" vertex="1">
          <mxGeometry x="20" y="430" width="40" height="40" as="geometry" />
        </mxCell>
        <mxCell id="9P4-RmKASeGlcGMQjBVW-27" value="e" style="ellipse;whiteSpace=wrap;html=1;aspect=fixed;" parent="1" vertex="1">
          <mxGeometry x="170" y="530" width="40" height="40" as="geometry" />
        </mxCell>
        <mxCell id="9P4-RmKASeGlcGMQjBVW-28" style="edgeStyle=none;rounded=0;orthogonalLoop=1;jettySize=auto;html=1;exitX=1;exitY=1;exitDx=0;exitDy=0;entryX=0.25;entryY=0;entryDx=0;entryDy=0;entryPerimeter=0;endArrow=baseDash;endFill=0;" parent="1" source="9P4-RmKASeGlcGMQjBVW-29" target="9P4-RmKASeGlcGMQjBVW-30" edge="1">
          <mxGeometry relative="1" as="geometry" />
        </mxCell>
        <mxCell id="9P4-RmKASeGlcGMQjBVW-29" value="d" style="ellipse;whiteSpace=wrap;html=1;aspect=fixed;" parent="1" vertex="1">
          <mxGeometry x="20" y="530" width="40" height="40" as="geometry" />
        </mxCell>
        <mxCell id="QD_6PpsXOqeVRtljdFyT-3" style="edgeStyle=orthogonalEdgeStyle;curved=1;rounded=0;orthogonalLoop=1;jettySize=auto;html=1;exitX=0;exitY=0.5;exitDx=0;exitDy=0;entryX=1;entryY=0.5;entryDx=0;entryDy=0;dashed=1;" parent="1" source="QD_6PpsXOqeVRtljdFyT-9" target="9P4-RmKASeGlcGMQjBVW-34" edge="1">
          <mxGeometry relative="1" as="geometry" />
        </mxCell>
        <mxCell id="9P4-RmKASeGlcGMQjBVW-30" value="f" style="ellipse;whiteSpace=wrap;html=1;aspect=fixed;" parent="1" vertex="1">
          <mxGeometry x="90" y="620" width="40" height="40" as="geometry" />
        </mxCell>
        <mxCell id="9P4-RmKASeGlcGMQjBVW-32" style="edgeStyle=none;rounded=0;orthogonalLoop=1;jettySize=auto;html=1;exitX=0;exitY=1;exitDx=0;exitDy=0;entryX=0.897;entryY=0.083;entryDx=0;entryDy=0;endArrow=baseDash;endFill=0;entryPerimeter=0;" parent="1" source="9P4-RmKASeGlcGMQjBVW-34" target="9P4-RmKASeGlcGMQjBVW-39" edge="1">
          <mxGeometry relative="1" as="geometry" />
        </mxCell>
        <mxCell id="9P4-RmKASeGlcGMQjBVW-33" style="edgeStyle=none;rounded=0;orthogonalLoop=1;jettySize=auto;html=1;exitX=1;exitY=1;exitDx=0;exitDy=0;" parent="1" source="9P4-RmKASeGlcGMQjBVW-34" target="9P4-RmKASeGlcGMQjBVW-37" edge="1">
          <mxGeometry relative="1" as="geometry" />
        </mxCell>
        <mxCell id="9P4-RmKASeGlcGMQjBVW-34" value="a" style="ellipse;whiteSpace=wrap;html=1;aspect=fixed;" parent="1" vertex="1">
          <mxGeometry x="-188" y="350" width="40" height="40" as="geometry" />
        </mxCell>
        <mxCell id="9P4-RmKASeGlcGMQjBVW-35" style="edgeStyle=none;rounded=0;orthogonalLoop=1;jettySize=auto;html=1;exitX=0.5;exitY=1;exitDx=0;exitDy=0;entryX=0.5;entryY=0;entryDx=0;entryDy=0;" parent="1" source="9P4-RmKASeGlcGMQjBVW-37" target="9P4-RmKASeGlcGMQjBVW-40" edge="1">
          <mxGeometry relative="1" as="geometry" />
        </mxCell>
        <mxCell id="9P4-RmKASeGlcGMQjBVW-36" style="edgeStyle=none;rounded=0;orthogonalLoop=1;jettySize=auto;html=1;exitX=0;exitY=1;exitDx=0;exitDy=0;entryX=0.945;entryY=0.26;entryDx=0;entryDy=0;entryPerimeter=0;" parent="1" source="9P4-RmKASeGlcGMQjBVW-37" target="9P4-RmKASeGlcGMQjBVW-42" edge="1">
          <mxGeometry relative="1" as="geometry" />
        </mxCell>
        <mxCell id="9P4-RmKASeGlcGMQjBVW-37" value="b" style="ellipse;whiteSpace=wrap;html=1;aspect=fixed;" parent="1" vertex="1">
          <mxGeometry x="-118" y="430" width="40" height="40" as="geometry" />
        </mxCell>
        <mxCell id="9P4-RmKASeGlcGMQjBVW-38" style="edgeStyle=none;rounded=0;orthogonalLoop=1;jettySize=auto;html=1;exitX=0.5;exitY=1;exitDx=0;exitDy=0;entryX=0.5;entryY=0;entryDx=0;entryDy=0;" parent="1" source="9P4-RmKASeGlcGMQjBVW-39" target="9P4-RmKASeGlcGMQjBVW-42" edge="1">
          <mxGeometry relative="1" as="geometry" />
        </mxCell>
        <mxCell id="9P4-RmKASeGlcGMQjBVW-39" value="c" style="ellipse;whiteSpace=wrap;html=1;aspect=fixed;" parent="1" vertex="1">
          <mxGeometry x="-268" y="430" width="40" height="40" as="geometry" />
        </mxCell>
        <mxCell id="QD_6PpsXOqeVRtljdFyT-2" style="edgeStyle=orthogonalEdgeStyle;curved=1;rounded=0;orthogonalLoop=1;jettySize=auto;html=1;exitX=1;exitY=0.5;exitDx=0;exitDy=0;entryX=0;entryY=0.5;entryDx=0;entryDy=0;dashed=1;" parent="1" source="QD_6PpsXOqeVRtljdFyT-8" target="9P4-RmKASeGlcGMQjBVW-21" edge="1">
          <mxGeometry relative="1" as="geometry">
            <Array as="points">
              <mxPoint x="80" y="380" />
              <mxPoint x="80" y="370" />
            </Array>
          </mxGeometry>
        </mxCell>
        <mxCell id="QD_6PpsXOqeVRtljdFyT-4" style="edgeStyle=orthogonalEdgeStyle;curved=1;rounded=0;orthogonalLoop=1;jettySize=auto;html=1;exitX=1;exitY=0.5;exitDx=0;exitDy=0;dashed=1;" parent="1" source="QD_6PpsXOqeVRtljdFyT-22" target="WsTCxCBbNMFjAXj_Hqe6-1" edge="1">
          <mxGeometry relative="1" as="geometry">
            <Array as="points" />
          </mxGeometry>
        </mxCell>
        <mxCell id="9P4-RmKASeGlcGMQjBVW-40" value="e" style="ellipse;whiteSpace=wrap;html=1;aspect=fixed;" parent="1" vertex="1">
          <mxGeometry x="-118" y="530" width="40" height="40" as="geometry" />
        </mxCell>
        <mxCell id="9P4-RmKASeGlcGMQjBVW-41" style="edgeStyle=none;rounded=0;orthogonalLoop=1;jettySize=auto;html=1;exitX=1;exitY=1;exitDx=0;exitDy=0;entryX=0.25;entryY=0;entryDx=0;entryDy=0;entryPerimeter=0;endArrow=baseDash;endFill=0;" parent="1" source="9P4-RmKASeGlcGMQjBVW-42" target="9P4-RmKASeGlcGMQjBVW-43" edge="1">
          <mxGeometry relative="1" as="geometry" />
        </mxCell>
        <mxCell id="9P4-RmKASeGlcGMQjBVW-42" value="d" style="ellipse;whiteSpace=wrap;html=1;aspect=fixed;" parent="1" vertex="1">
          <mxGeometry x="-268" y="530" width="40" height="40" as="geometry" />
        </mxCell>
        <mxCell id="9P4-RmKASeGlcGMQjBVW-43" value="f" style="ellipse;whiteSpace=wrap;html=1;aspect=fixed;" parent="1" vertex="1">
          <mxGeometry x="-198" y="620" width="40" height="40" as="geometry" />
        </mxCell>
        <mxCell id="9P4-RmKASeGlcGMQjBVW-59" style="edgeStyle=orthogonalEdgeStyle;curved=1;rounded=0;orthogonalLoop=1;jettySize=auto;html=1;exitX=1;exitY=0.5;exitDx=0;exitDy=0;entryX=0;entryY=0.5;entryDx=0;entryDy=0;dashed=1;" parent="1" source="9P4-RmKASeGlcGMQjBVW-51" target="9P4-RmKASeGlcGMQjBVW-56" edge="1">
          <mxGeometry relative="1" as="geometry" />
        </mxCell>
        <mxCell id="9P4-RmKASeGlcGMQjBVW-60" style="edgeStyle=orthogonalEdgeStyle;curved=1;rounded=0;orthogonalLoop=1;jettySize=auto;html=1;exitX=0.5;exitY=1;exitDx=0;exitDy=0;entryX=0.5;entryY=1;entryDx=0;entryDy=0;dashed=1;" parent="1" source="9P4-RmKASeGlcGMQjBVW-51" target="9P4-RmKASeGlcGMQjBVW-57" edge="1">
          <mxGeometry relative="1" as="geometry">
            <Array as="points">
              <mxPoint x="-150" y="770" />
              <mxPoint x="370" y="770" />
            </Array>
          </mxGeometry>
        </mxCell>
        <mxCell id="9P4-RmKASeGlcGMQjBVW-51" value="&lt;font color=&quot;#ffffff&quot;&gt;t0&lt;/font&gt;" style="rounded=0;whiteSpace=wrap;html=1;fillColor=#000000;" parent="1" vertex="1">
          <mxGeometry x="-198" y="699" width="40" height="40" as="geometry" />
        </mxCell>
        <mxCell id="9P4-RmKASeGlcGMQjBVW-63" style="edgeStyle=orthogonalEdgeStyle;curved=1;rounded=0;orthogonalLoop=1;jettySize=auto;html=1;exitX=0;exitY=0.75;exitDx=0;exitDy=0;entryX=1;entryY=0.75;entryDx=0;entryDy=0;dashed=1;" parent="1" source="9P4-RmKASeGlcGMQjBVW-56" target="9P4-RmKASeGlcGMQjBVW-51" edge="1">
          <mxGeometry relative="1" as="geometry" />
        </mxCell>
        <mxCell id="9P4-RmKASeGlcGMQjBVW-56" value="&lt;font color=&quot;#ffffff&quot;&gt;t1&lt;/font&gt;" style="rounded=0;whiteSpace=wrap;html=1;fillColor=#000000;" parent="1" vertex="1">
          <mxGeometry x="90" y="699" width="40" height="40" as="geometry" />
        </mxCell>
        <mxCell id="9P4-RmKASeGlcGMQjBVW-57" value="&lt;font color=&quot;#ffffff&quot;&gt;t2&lt;/font&gt;" style="rounded=0;whiteSpace=wrap;html=1;fillColor=#000000;" parent="1" vertex="1">
          <mxGeometry x="380" y="699" width="40" height="40" as="geometry" />
        </mxCell>
        <mxCell id="9P4-RmKASeGlcGMQjBVW-61" style="edgeStyle=orthogonalEdgeStyle;curved=1;rounded=0;orthogonalLoop=1;jettySize=auto;html=1;exitX=0.5;exitY=1;exitDx=0;exitDy=0;entryX=0.25;entryY=1;entryDx=0;entryDy=0;dashed=1;" parent="1" source="9P4-RmKASeGlcGMQjBVW-58" target="9P4-RmKASeGlcGMQjBVW-51" edge="1">
          <mxGeometry relative="1" as="geometry">
            <Array as="points">
              <mxPoint x="629" y="780" />
              <mxPoint x="-160" y="780" />
            </Array>
          </mxGeometry>
        </mxCell>
        <mxCell id="9P4-RmKASeGlcGMQjBVW-62" style="edgeStyle=orthogonalEdgeStyle;curved=1;rounded=0;orthogonalLoop=1;jettySize=auto;html=1;exitX=0;exitY=0.5;exitDx=0;exitDy=0;entryX=1;entryY=0.5;entryDx=0;entryDy=0;dashed=1;" parent="1" edge="1">
          <mxGeometry relative="1" as="geometry">
            <mxPoint x="639" y="719" as="sourcePoint" />
            <mxPoint x="420" y="719" as="targetPoint" />
          </mxGeometry>
        </mxCell>
        <mxCell id="9P4-RmKASeGlcGMQjBVW-58" value="&lt;font color=&quot;#ffffff&quot;&gt;t3&lt;/font&gt;" style="rounded=0;whiteSpace=wrap;html=1;fillColor=#000000;" parent="1" vertex="1">
          <mxGeometry x="668" y="699" width="40" height="40" as="geometry" />
        </mxCell>
        <mxCell id="QD_6PpsXOqeVRtljdFyT-18" value="" style="edgeStyle=orthogonalEdgeStyle;curved=1;rounded=0;orthogonalLoop=1;jettySize=auto;html=1;exitX=0;exitY=0.5;exitDx=0;exitDy=0;entryX=1;entryY=0.5;entryDx=0;entryDy=0;dashed=1;endArrow=diamondThin;endFill=1;" parent="1" source="QD_6PpsXOqeVRtljdFyT-12" target="QD_6PpsXOqeVRtljdFyT-9" edge="1">
          <mxGeometry relative="1" as="geometry">
            <mxPoint x="90" y="640" as="sourcePoint" />
            <mxPoint x="-120" y="370" as="targetPoint" />
            <Array as="points" />
          </mxGeometry>
        </mxCell>
        <mxCell id="QD_6PpsXOqeVRtljdFyT-9" value="v-in:t1" style="ellipse;whiteSpace=wrap;html=1;aspect=fixed;fillColor=#E6E6E6;" parent="1" vertex="1">
          <mxGeometry x="-108" y="370" width="40" height="40" as="geometry" />
        </mxCell>
        <mxCell id="QD_6PpsXOqeVRtljdFyT-19" value="" style="edgeStyle=orthogonalEdgeStyle;curved=1;rounded=0;orthogonalLoop=1;jettySize=auto;html=1;exitX=0;exitY=0.5;exitDx=0;exitDy=0;entryX=1;entryY=0.5;entryDx=0;entryDy=0;strokeColor=default;dashed=1;endArrow=diamondThin;endFill=1;" parent="1" source="QD_6PpsXOqeVRtljdFyT-13" target="QD_6PpsXOqeVRtljdFyT-11" edge="1">
          <mxGeometry relative="1" as="geometry">
            <mxPoint x="729" y="550" as="sourcePoint" />
            <mxPoint x="-140" y="350" as="targetPoint" />
            <Array as="points">
              <mxPoint x="10" y="330" />
              <mxPoint x="10" y="340" />
            </Array>
          </mxGeometry>
        </mxCell>
        <mxCell id="QD_6PpsXOqeVRtljdFyT-11" value="v-in:t3" style="ellipse;whiteSpace=wrap;html=1;aspect=fixed;fillColor=#E6E6E6;" parent="1" vertex="1">
          <mxGeometry x="-118" y="320" width="40" height="40" as="geometry" />
        </mxCell>
        <mxCell id="QD_6PpsXOqeVRtljdFyT-20" value="" style="edgeStyle=orthogonalEdgeStyle;curved=1;rounded=0;orthogonalLoop=1;jettySize=auto;html=1;exitX=0;exitY=0.5;exitDx=0;exitDy=0;entryX=1;entryY=0.5;entryDx=0;entryDy=0;dashed=1;endArrow=diamondThin;endFill=1;" parent="1" source="QD_6PpsXOqeVRtljdFyT-14" target="QD_6PpsXOqeVRtljdFyT-17" edge="1">
          <mxGeometry relative="1" as="geometry">
            <mxPoint x="639" y="640" as="sourcePoint" />
            <mxPoint x="430" y="370" as="targetPoint" />
          </mxGeometry>
        </mxCell>
        <mxCell id="QD_6PpsXOqeVRtljdFyT-17" value="v-in:t3" style="ellipse;whiteSpace=wrap;html=1;aspect=fixed;fillColor=#E6E6E6;" parent="1" vertex="1">
          <mxGeometry x="480" y="380" width="40" height="40" as="geometry" />
        </mxCell>
        <mxCell id="QD_6PpsXOqeVRtljdFyT-21" value="" style="edgeStyle=orthogonalEdgeStyle;curved=1;rounded=0;orthogonalLoop=1;jettySize=auto;html=1;exitX=1;exitY=0.5;exitDx=0;exitDy=0;entryX=0.5;entryY=1;entryDx=0;entryDy=0;dashed=1;" parent="1" source="9P4-RmKASeGlcGMQjBVW-40" target="QD_6PpsXOqeVRtljdFyT-29" edge="1">
          <mxGeometry relative="1" as="geometry">
            <mxPoint x="-78" y="550" as="sourcePoint" />
            <mxPoint x="72" y="370" as="targetPoint" />
            <Array as="points">
              <mxPoint x="-68" y="550" />
              <mxPoint x="-68" y="530" />
              <mxPoint x="-72" y="530" />
            </Array>
          </mxGeometry>
        </mxCell>
        <mxCell id="QD_6PpsXOqeVRtljdFyT-8" value="v-in:t0" style="ellipse;whiteSpace=wrap;html=1;aspect=fixed;fillColor=#E6E6E6;" parent="1" vertex="1">
          <mxGeometry x="30" y="360" width="40" height="40" as="geometry" />
        </mxCell>
        <mxCell id="QD_6PpsXOqeVRtljdFyT-23" value="" style="edgeStyle=orthogonalEdgeStyle;curved=1;rounded=0;orthogonalLoop=1;jettySize=auto;html=1;exitX=1;exitY=1;exitDx=0;exitDy=0;dashed=1;entryX=0;entryY=0.5;entryDx=0;entryDy=0;endArrow=diamondThin;endFill=1;" parent="1" source="QD_6PpsXOqeVRtljdFyT-27" target="QD_6PpsXOqeVRtljdFyT-22" edge="1">
          <mxGeometry relative="1" as="geometry">
            <mxPoint x="-56" y="564" as="sourcePoint" />
            <mxPoint x="380" y="390" as="targetPoint" />
            <Array as="points">
              <mxPoint x="-56" y="670" />
              <mxPoint x="230" y="670" />
              <mxPoint x="230" y="630" />
            </Array>
          </mxGeometry>
        </mxCell>
        <mxCell id="QD_6PpsXOqeVRtljdFyT-22" value="v-in:t0" style="ellipse;whiteSpace=wrap;html=1;aspect=fixed;fillColor=#E6E6E6;" parent="1" vertex="1">
          <mxGeometry x="310" y="610" width="40" height="40" as="geometry" />
        </mxCell>
        <mxCell id="QD_6PpsXOqeVRtljdFyT-24" value="" style="edgeStyle=orthogonalEdgeStyle;curved=1;rounded=0;orthogonalLoop=1;jettySize=auto;html=1;exitX=0;exitY=0.5;exitDx=0;exitDy=0;entryX=0.5;entryY=1;entryDx=0;entryDy=0;dashed=1;" parent="1" source="9P4-RmKASeGlcGMQjBVW-18" target="QD_6PpsXOqeVRtljdFyT-14" edge="1">
          <mxGeometry relative="1" as="geometry">
            <mxPoint x="668" y="640" as="sourcePoint" />
            <mxPoint x="549" y="400" as="targetPoint" />
            <Array as="points">
              <mxPoint x="586" y="640" />
            </Array>
          </mxGeometry>
        </mxCell>
        <mxCell id="QD_6PpsXOqeVRtljdFyT-14" value="&lt;font style=&quot;font-size: 11px;&quot;&gt;v-out:t2&lt;/font&gt;" style="ellipse;whiteSpace=wrap;html=1;aspect=fixed;fillColor=#E6E6E6;" parent="1" vertex="1">
          <mxGeometry x="566" y="380" width="40" height="40" as="geometry" />
        </mxCell>
        <mxCell id="QD_6PpsXOqeVRtljdFyT-25" value="" style="edgeStyle=orthogonalEdgeStyle;curved=1;rounded=0;orthogonalLoop=1;jettySize=auto;html=1;exitX=1;exitY=0.5;exitDx=0;exitDy=0;entryX=1;entryY=0.5;entryDx=0;entryDy=0;dashed=1;" parent="1" source="9P4-RmKASeGlcGMQjBVW-15" target="QD_6PpsXOqeVRtljdFyT-13" edge="1">
          <mxGeometry relative="1" as="geometry">
            <mxPoint x="788" y="550" as="sourcePoint" />
            <mxPoint x="9" y="340" as="targetPoint" />
            <Array as="points">
              <mxPoint x="809" y="550" />
              <mxPoint x="809" y="330" />
            </Array>
          </mxGeometry>
        </mxCell>
        <mxCell id="QD_6PpsXOqeVRtljdFyT-13" value="&lt;font style=&quot;font-size: 11px;&quot;&gt;v-out:t1&lt;/font&gt;" style="ellipse;whiteSpace=wrap;html=1;aspect=fixed;fillColor=#E6E6E6;" parent="1" vertex="1">
          <mxGeometry x="628" y="310" width="40" height="40" as="geometry" />
        </mxCell>
        <mxCell id="QD_6PpsXOqeVRtljdFyT-26" value="" style="edgeStyle=orthogonalEdgeStyle;curved=1;rounded=0;orthogonalLoop=1;jettySize=auto;html=1;exitX=0;exitY=0.5;exitDx=0;exitDy=0;entryX=1;entryY=0.5;entryDx=0;entryDy=0;dashed=1;" parent="1" source="9P4-RmKASeGlcGMQjBVW-30" target="QD_6PpsXOqeVRtljdFyT-12" edge="1">
          <mxGeometry relative="1" as="geometry">
            <mxPoint x="90" y="640" as="sourcePoint" />
            <mxPoint x="-40" y="390" as="targetPoint" />
            <Array as="points">
              <mxPoint x="80" y="640" />
              <mxPoint x="80" y="630" />
            </Array>
          </mxGeometry>
        </mxCell>
        <mxCell id="QD_6PpsXOqeVRtljdFyT-12" value="&lt;font style=&quot;font-size: 11px;&quot;&gt;v-out:t0&lt;/font&gt;" style="ellipse;whiteSpace=wrap;html=1;aspect=fixed;fillColor=#E6E6E6;" parent="1" vertex="1">
          <mxGeometry x="20" y="610" width="40" height="40" as="geometry" />
        </mxCell>
        <mxCell id="QD_6PpsXOqeVRtljdFyT-28" value="" style="edgeStyle=orthogonalEdgeStyle;curved=1;rounded=0;orthogonalLoop=1;jettySize=auto;html=1;exitX=0.5;exitY=1;exitDx=0;exitDy=0;dashed=1;entryX=0.5;entryY=0;entryDx=0;entryDy=0;" parent="1" source="9P4-RmKASeGlcGMQjBVW-40" target="QD_6PpsXOqeVRtljdFyT-27" edge="1">
          <mxGeometry relative="1" as="geometry">
            <mxPoint x="-84" y="564" as="sourcePoint" />
            <mxPoint x="252" y="630" as="targetPoint" />
            <Array as="points" />
          </mxGeometry>
        </mxCell>
        <mxCell id="QD_6PpsXOqeVRtljdFyT-27" value="&lt;font style=&quot;font-size: 11px;&quot;&gt;v-out:t2&lt;/font&gt;" style="ellipse;whiteSpace=wrap;html=1;aspect=fixed;fillColor=#E6E6E6;" parent="1" vertex="1">
          <mxGeometry x="-118" y="610" width="40" height="40" as="geometry" />
        </mxCell>
        <mxCell id="QD_6PpsXOqeVRtljdFyT-29" value="&lt;font style=&quot;font-size: 11px;&quot;&gt;v-out:t1&lt;/font&gt;" style="ellipse;whiteSpace=wrap;html=1;aspect=fixed;fillColor=#E6E6E6;" parent="1" vertex="1">
          <mxGeometry x="-92" y="479" width="40" height="40" as="geometry" />
        </mxCell>
        <mxCell id="QD_6PpsXOqeVRtljdFyT-30" value="" style="edgeStyle=orthogonalEdgeStyle;curved=1;rounded=0;orthogonalLoop=1;jettySize=auto;html=1;exitX=0.5;exitY=0;exitDx=0;exitDy=0;entryX=0;entryY=0.5;entryDx=0;entryDy=0;dashed=1;endArrow=diamond;endFill=1;" parent="1" source="QD_6PpsXOqeVRtljdFyT-29" target="QD_6PpsXOqeVRtljdFyT-8" edge="1">
          <mxGeometry relative="1" as="geometry">
            <mxPoint x="-40" y="560" as="sourcePoint" />
            <mxPoint x="-34" y="529" as="targetPoint" />
            <Array as="points">
              <mxPoint x="-44" y="460" />
              <mxPoint x="-40" y="460" />
              <mxPoint x="-40" y="440" />
              <mxPoint x="-20" y="440" />
              <mxPoint x="-20" y="380" />
            </Array>
          </mxGeometry>
        </mxCell>
      </root>
    </mxGraphModel>
  </diagram>
</mxfile>
